<?xml version="1.0" encoding="UTF-8" standalone="no"?>
<svg width="188px" height="207px" viewBox="0 0 188 207" version="1.1" xmlns="http://www.w3.org/2000/svg" xmlns:xlink="http://www.w3.org/1999/xlink" xmlns:sketch="http://www.bohemiancoding.com/sketch/ns">
    <!-- Generator: Sketch 3.0.4 (8054) - http://www.bohemiancoding.com/sketch -->
    <title>icon_32763</title>
    <desc>Created with Sketch.</desc>
    <defs></defs>
    <g id="Page-1" stroke="none" stroke-width="1" fill="none" fill-rule="evenodd" sketch:type="MSPage">
        <g id="icon_32763" sketch:type="MSLayerGroup" transform="translate(93.231317, 105.811866) scale(-1, -1) rotate(-20.000000) translate(-93.231317, -105.811866) translate(-18.768683, 27.311866)" fill="#49BFB8">
            <path d="M210.77503,12.5643478 C206.298424,7.60965217 193.299636,-0.746521739 179.683152,0.650695652 C166.073455,2.04791304 145.390788,5.1373913 121.897939,16.2574783 C98.4084848,27.3707826 72.6756364,39.3590435 51.2564848,55.8441739 C29.8339394,72.336087 16.2412121,87.1052174 11.7510303,92.1616522 C7.29139394,97.2282609 0.262545455,103.027391 0.221818182,121.56087 C0.187878788,140.080783 17.8261818,156.42687 17.8261818,156.42687 C21.9090909,159.021217 25.432,155.385739 25.432,155.385739 C25.432,155.385739 63.4746667,122.001739 67.9580606,117.864348 C72.4346667,113.733739 69.5871515,109.586174 69.5871515,109.586174 C69.5871515,109.586174 63.6341818,102.501739 59.1338182,98.8391304 C54.6266667,95.1765217 55.2138182,93.0264348 56.7546667,88.705913 C58.2989091,84.3887826 62.5990303,73.8452174 85.8033939,58.3469565 C109.014545,42.8351304 131.991515,38.3450435 134.16703,38.016087 C136.359515,37.693913 147.135273,37.2598261 150.349333,39.61 C153.580364,41.9703478 153.515879,47.142087 153.515879,47.142087 C153.515879,47.142087 156.631515,56.8649565 157.642909,60.4461739 C158.667879,64.024 164.471515,63.4610435 164.471515,63.4610435 L221.286061,45.036087 C221.286061,45.036087 224.408485,43.8321739 224.038545,38.8401739 C223.638061,33.8481739 215.265212,17.5258261 210.77503,12.5643478 L210.77503,12.5643478 Z M13.0441212,141.379652 L34.6804848,125.46087 C34.6770909,125.457478 22.465697,139.907826 13.0441212,141.379652 L13.0441212,141.379652 Z M200.240242,35.8524348 C191.731636,40.267913 155.318061,49.438 155.318061,49.438 C186.277576,34.54 208.755636,31.4403478 200.240242,35.8524348 L200.240242,35.8524348 Z" id="Shape" sketch:type="MSShapeGroup"></path>
        </g>
    </g>
</svg>